<svg width="23" height="39" fill="none" xmlns="http://www.w3.org/2000/svg"><path d="M14.207 39h-6.49c-1.084 0-1.965-.849-1.965-1.892V23.021H1.966C.882 23.021 0 22.172 0 21.13v-6.036c0-1.043.882-1.892 1.966-1.892h3.786v-3.023c0-2.997.978-5.547 2.827-7.373C10.437.97 13.034 0 16.09 0l4.949.008C22.12.01 23 .858 23 1.9v5.604c0 1.043-.881 1.892-1.965 1.892l-3.332.001c-1.017 0-1.275.196-1.33.256-.092.1-.2.382-.2 1.16V13.2h4.612c.347 0 .683.082.972.238.624.335 1.011.97 1.011 1.654l-.002 6.037c0 1.042-.882 1.89-1.966 1.89h-4.627v14.088c0 1.043-.882 1.892-1.966 1.892zm-6.08-2.286h5.67V21.998c0-.697.589-1.264 1.312-1.264h5.281l.002-5.246H15.11c-.724 0-1.312-.567-1.312-1.263v-3.412c0-.893.094-1.91.795-2.673.846-.923 2.18-1.03 3.11-1.03h2.922V2.293l-4.537-.007c-4.91 0-7.96 3.025-7.96 7.892v4.046c0 .697-.588 1.264-1.312 1.264h-4.44v5.247h4.44c.724 0 1.312.566 1.312 1.263v14.716zm12.906-34.42z" fill="#C4C4C4"/></svg>