<svg width="40" height="31" fill="none" xmlns="http://www.w3.org/2000/svg"><path d="M39.67.538A1.436 1.436 0 0038.05.09L1.36 13.54a2.078 2.078 0 00-1.343 1.71 2.08 2.08 0 00.881 1.976l5.245 3.631a1.63 1.63 0 001.705.099l11.377-6.086-8.867 6.716a1.695 1.695 0 00-.665 1.345v6.221c0 .642.347 1.23.906 1.535a1.7 1.7 0 001.766-.08l3.985-2.682 3.918 2.71a2.045 2.045 0 001.583.321 2.086 2.086 0 001.335-.946L39.787 2.243A1.49 1.49 0 0039.67.538zM21.345 28.502l-4.058-2.807a1.634 1.634 0 00-1.848-.012l-3.402 2.289v-4.69l15.657-11.859c.7-.53.876-1.493.41-2.242a1.63 1.63 0 00-2.172-.588L7.121 18.655l-4.436-3.072L36.473 3.198 21.345 28.502z" fill="#C4C4C4"/></svg>