<svg width="41" height="40" fill="none" xmlns="http://www.w3.org/2000/svg"><path d="M34.836 5.692A19.042 19.042 0 0021.282.077h-.002c-2.533 0-5.001.49-7.336 1.458a19.073 19.073 0 00-6.217 4.157 19.043 19.043 0 00-5.614 13.554c0 3.054.736 6.088 2.132 8.792l-3.222 9.205a1.761 1.761 0 00.42 1.841 1.76 1.76 0 001.842.42l9.205-3.221a19.225 19.225 0 008.792 2.132c5.12 0 9.933-1.994 13.554-5.614a19.044 19.044 0 005.614-13.555 19.04 19.04 0 00-5.614-13.554zm-1.64 25.47a16.74 16.74 0 01-11.914 4.935c-2.754 0-5.49-.681-7.91-1.97a1.785 1.785 0 00-1.425-.11l-8.363 2.926 2.927-8.362a1.786 1.786 0 00-.11-1.425 16.893 16.893 0 01-1.97-7.91c0-4.5 1.753-8.732 4.935-11.915A16.742 16.742 0 0121.28 2.395h.002a16.74 16.74 0 0111.915 4.936 16.739 16.739 0 014.935 11.915 16.74 16.74 0 01-4.935 11.916z" fill="#C4C4C4"/><path d="M28.406 20.959a2.264 2.264 0 00-3.199 0l-.964.964a14.039 14.039 0 01-5.638-5.638l.964-.964a2.264 2.264 0 000-3.199L16.97 9.523a2.264 2.264 0 00-3.198 0l-2.08 2.08c-1.19 1.19-1.25 3.238-.167 5.765.94 2.194 2.661 4.605 4.845 6.79 2.185 2.184 4.596 3.904 6.79 4.845 1.2.514 2.293.77 3.236.77 1.043 0 1.904-.312 2.53-.938l2.079-2.079c.427-.427.662-.995.662-1.599s-.235-1.172-.662-1.6l-2.6-2.598zm-1.12 6.237c-.34.34-1.385.459-3.212-.324-1.93-.827-4.083-2.373-6.064-4.354-1.98-1.98-3.527-4.134-4.354-6.064-.783-1.827-.664-2.873-.324-3.212l2.04-2.04 2.518 2.52-1.207 1.207a1.77 1.77 0 00-.328 2.06 16.356 16.356 0 007.184 7.184 1.77 1.77 0 002.06-.328l1.207-1.207 2.52 2.52-2.04 2.038z" fill="#C4C4C4"/></svg>